{"title":"The.Grey.2012.DVDSCR.XviD-NO.WATERMARK-INFERNO","uid":7042941,"size":1502006799,"categoryP":"video","categoryS":"movies","magnet":"?xt=urn:btih:31766d17e63c2f06f790992f8fae2177c82ea9d2&amp;dn=The.Grey.2012.DVDSCR.XviD-NO.WATERMARK-INFERNO&amp;tr=udp%3A%2F%2Ftracker.openbittorrent.com%3A80&amp;tr=udp%3A%2F%2Fopen.demonii.com%3A1337&amp;tr=udp%3A%2F%2Ftracker.coppersurfer.tk%3A6969&amp;tr=udp%3A%2F%2Fexodus.desync.com%3A6969","seeders":0,"leechers":0,"uploader":"maximersk","files":3,"time":1329618666,"description":"The.Grey.2012.DVDSCR.XviD-NO.WATERMARK-INFERNO\n\n\n\n\n\n\n\nIn Alaska, an oil drilling team struggle to survive after a plane crash strands them in the wild. Hunting the humans are a pack of wolves who see them as intruders\n\nSource: CrEwSaDe....THX\n\nFormat : AVI\nFormat/Info : Audio Video Interleave\nFile size : 1.38 GiB\nDuration : 1h 56mn\nOverall bit rate : 1 694 Kbps\nWriting application : Lavf51.12.1\nWriting library : VirtualDub build 33848/release\n\nVideo\nID : 0\nFormat : MPEG-4 Visual\nFormat profile : Advanced Simple@L5\nFormat settings, BVOP : Yes\nFormat settings, QPel : No\nFormat settings, GMC : No warppoints\nFormat settings, Matrix : Default (H.263)\nMuxing mode : Packed bitstream\nCodec ID : XVID\nCodec ID/Hint : XviD\nDuration : 1h 56mn\nBit rate : 1 492 Kbps\nWidth : 720 pixels\nHeight : 304 pixels\nDisplay aspect ratio : 2.35:1\nFrame rate : 25.000 fps\nColor space : YUV\nChroma subsampling : 4:2:0\nBit depth : 8 bits\nScan type : Progressive\nBits/(Pixel*Frame) : 0.273\nStream size : 1.22 GiB (88%)\nWriting library : XviD 1.2.1 (UTC 2008-12-04)\n\nAudio\nID : 1\nFormat : MPEG Audio\nFormat version : Version 1\nFormat profile : Layer 3\nMode : Joint stereo\nMode extension : MS Stereo\nCodec ID : 55\nCodec ID/Hint : MP3\nDuration : 1h 56mn\nBit rate mode : Constant\nBit rate : 192 Kbps\nChannel(s) : 2 channels\nSampling rate : 48.0 KHz\nStream size : 161 MiB (11%)","torrent":{"xt":"urn:btih:31766d17e63c2f06f790992f8fae2177c82ea9d2","amp;dn":"The.Grey.2012.DVDSCR.XviD-NO.WATERMARK-INFERNO","amp;tr":["udp%3A%2F%2Ftracker.openbittorrent.com%3A80","udp%3A%2F%2Fopen.demonii.com%3A1337","udp%3A%2F%2Ftracker.coppersurfer.tk%3A6969","udp%3A%2F%2Fexodus.desync.com%3A6969"],"infoHash":"31766d17e63c2f06f790992f8fae2177c82ea9d2","infoHashBuffer":{"type":"Buffer","data":[49,118,109,23,230,60,47,6,247,144,153,47,143,174,33,119,200,46,169,210]},"announce":[],"urlList":[]}}